<?xml version="1.0" encoding="utf-8"?>
<!-- Generator: Adobe Illustrator 25.0.1, SVG Export Plug-In . SVG Version: 6.00 Build 0)  -->
<svg version="1.1" id="Layer_1" xmlns="http://www.w3.org/2000/svg" xmlns:xlink="http://www.w3.org/1999/xlink" x="0px" y="0px"
	 viewBox="0 0 250 250" style="enable-background:new 0 0 250 250;" xml:space="preserve">
<style type="text/css">
	.st0{fill:#FFFFFF;}
</style>
<g id="KlNUKd.tif">
	<g>
		<path class="st0" d="M170.6,118.51c-0.02-0.18-0.07-0.34-0.35-0.22c0.12,0.07,0.25,0.13,0.37,0.2c0.1,0.21,0.17,0.44,0.31,0.61
			c1.11,1.37,2.21,2.74,3.35,4.07c1.74,2.04,3.5,4.05,5.26,6.06c1.08,1.24,2.18,2.46,3.27,3.7c0.31,0.35,0.23,0.53-0.22,0.59
			c-1.16,0.15-2.33,0.2-3.5,0.36c-1.53,0.2-3.09,0.18-4.63,0.42c-1.5,0.24-3.04,0.19-4.55,0.43c-1.38,0.22-2.81,0.16-4.2,0.43
			c-0.75,0.15-1.51,0.21-2.26,0.42c-1.43,0.38-2.71,1.01-3.91,1.86c-1.95,1.38-3.06,3.3-3.4,5.62c-0.17,1.13-0.1,2.31,0.01,3.45
			c0.16,1.65,0.69,3.22,1.35,4.72c0.82,1.87,1.77,3.68,2.67,5.51c0.46,0.93,0.95,1.83,1.41,2.76c0.69,1.39,1.36,2.78,2.03,4.18
			c0.8,1.67,1.62,3.33,2.4,5.01c0.4,0.85,0.75,1.72,1.08,2.6c0.35,0.94,0.7,1.89,0.97,2.86c0.26,0.97,0.39,1.98,0.63,2.96
			c0.3,1.22,0.29,2.4-0.06,3.62c-0.27,0.93-0.77,1.65-1.52,2.23c-1.34,1.02-2.94,1.36-4.53,1.56c-1.9,0.24-3.77-0.02-5.61-0.66
			c-1.68-0.59-3.22-1.43-4.67-2.42c-1.51-1.03-2.83-2.29-4.09-3.61c-0.58-0.61-1.15-1.23-1.66-1.9c-0.77-1-1.52-2.02-2.24-3.05
			c-0.56-0.81-1.09-1.63-1.56-2.49c-0.65-1.19-1.26-2.4-1.83-3.63c-0.38-0.82-0.68-1.69-0.99-2.54c-0.23-0.63-0.46-1.27-0.64-1.92
			c-0.24-0.9-0.41-1.81-0.62-2.75c0,1.31,0,2.58,0,3.85c0,0.14,0.01,0.28,0.04,0.42c0.21,1.13,0.4,2.27,0.66,3.39
			c0.29,1.23,0.58,2.47,1.01,3.66c0.57,1.54,1.24,3.04,1.93,4.53c1.09,2.33,2.52,4.46,4.15,6.43c1.57,1.9,3.27,3.69,5.36,5.04
			c1.06,0.68,2.18,1.27,3.31,1.84c0.85,0.44,1.77,0.71,2.7,0.98c1.14,0.33,2.3,0.49,3.46,0.58c1.25,0.1,2.51,0.06,3.78-0.18
			c1.27-0.24,2.53-0.48,3.72-0.97c0.73-0.3,1.45-0.67,2.09-1.12c1.4-1,2.59-2.18,3.32-3.81c0.46-1.04,0.84-2.08,1.02-3.18
			c0.29-1.77,0.22-3.57,0.03-5.35c-0.05-0.51-0.19-1-0.3-1.51c-0.2-0.94-0.37-1.88-0.61-2.81c-0.23-0.88-0.52-1.74-0.82-2.6
			c-0.33-0.95-0.65-1.91-1.04-2.83c-0.46-1.07-0.99-2.11-1.5-3.16c-0.57-1.18-1.11-2.37-1.7-3.54c-1.03-2.02-2.09-4.03-3.13-6.04
			c-0.88-1.7-1.85-3.34-2.6-5.11c-0.56-1.33-0.88-2.66-0.79-4.1c0.03-0.47,0.18-0.84,0.52-1.18c0.81-0.81,1.87-1.15,2.91-1.5
			c0.72-0.24,1.51-0.31,2.27-0.43c1.18-0.19,2.36-0.36,3.54-0.54c0.23-0.03,0.47-0.04,0.7-0.09c1.03-0.21,2.06-0.45,3.09-0.65
			c1.52-0.29,3.04-0.57,4.56-0.83c1.18-0.21,2.36-0.39,3.54-0.59c0.16-0.03,0.32-0.06,0.48-0.09c0.96-0.21,1.91-0.45,2.88-0.61
			c0.44-0.07,0.82-0.2,1.16-0.46c1.3-0.99,1.32-2.82,0.2-3.81c-1.59-1.41-3.21-2.79-4.83-4.17c-1.03-0.88-2.07-1.75-3.1-2.63
			c-0.45-0.38-0.88-0.77-1.34-1.14c-1.31-1.05-2.64-2.1-3.96-3.14c-0.44-0.35-0.9-0.68-1.33-1.03c-0.98-0.79-1.96-1.59-2.95-2.37
			C170.99,118.57,170.78,118.56,170.6,118.51z M98.84,157.21c0-0.17,0.12-0.4-0.22-0.39C98.69,156.96,98.76,157.08,98.84,157.21
			c0.45,0.33,0.89,0.68,1.36,0.98c1.56,1,3.19,1.86,5.01,2.32c1.44,0.36,2.89,0.6,4.37,0.63c0.53,0.01,1.06-0.19,1.6-0.21
			c1.35-0.06,2.61-0.48,3.89-0.86c1.52-0.45,2.92-1.16,4.29-1.91c2.26-1.24,4.31-2.8,6.23-4.52c1.5-1.34,2.97-2.72,4.44-4.09
			c1.94-1.8,3.95-3.51,5.99-5.2c1.55-1.29,3.11-2.55,4.78-3.68c1.36-0.92,2.72-1.82,4.17-2.59c2.15-1.15,4.31-2.22,6.75-2.71
			c1.19-0.24,2.4-0.39,3.6-0.59c1.23-0.21,2.44-0.4,3.58-0.94c0.99-0.47,1.87-1.11,2.5-2.01c0.78-1.11,1.51-2.26,2.19-3.42
			c0.51-0.86,0.97-1.76,1.36-2.68c0.39-0.9,0.68-1.84,0.99-2.77c0.28-0.86,0.52-1.74,0.75-2.62c0.07-0.27,0-0.59,0.11-0.84
			c0.33-0.74,0.3-1.53,0.33-2.29c0.11-2.44,0.09-4.89-0.46-7.29c-0.22-0.95-0.48-1.9-0.79-2.83c-0.37-1.08-0.8-2.14-1.22-3.2
			c-0.81-2.06-2.04-3.89-3.25-5.72c-1.08-1.65-2.48-3.05-3.87-4.44c-0.84-0.85-1.81-1.56-2.72-2.34c-2.34-2-4.92-3.64-7.66-5.05
			c-2.3-1.18-4.65-2.21-7.13-2.93c-0.52-0.15-1.03-0.32-1.54-0.47c-0.97-0.26-1.94-0.51-2.92-0.76c-0.16-0.04-0.33-0.05-0.49-0.08
			c-1.12-0.21-2.24-0.46-3.37-0.64c-0.81-0.12-1.66-0.07-2.46-0.24c-0.61-0.13-1.2-0.19-1.81-0.2c-0.61-0.01-1.23-0.02-1.84-0.03
			c-2.68-0.06-5.36,0.05-8.02,0.42c-0.28,0.04-0.57,0.02-0.84,0.08c-1.22,0.23-2.43,0.46-3.65,0.71c-0.85,0.18-1.7,0.37-2.53,0.59
			c-0.81,0.21-1.62,0.46-2.42,0.71c-1.01,0.31-2.02,0.61-3,0.98c-1.2,0.46-2.39,0.96-3.56,1.49c-1.41,0.64-2.81,1.28-4.18,2
			c-1.59,0.85-3.15,1.75-4.69,2.69c-1.52,0.93-3.01,1.91-4.46,2.93c-1.15,0.81-2.24,1.7-3.34,2.58c-2.45,1.97-4.78,4.08-7,6.31
			c-0.32,0.33-0.67,0.63-1.04,0.98c-0.53-0.85-1.04-1.6-1.49-2.39c-0.9-1.57-2.02-2.97-3.14-4.38c-0.99-1.24-2-2.47-3.01-3.7
			c-1.02-1.25-1.92-2.58-2.76-3.96c-0.57-0.95-1.07-1.94-1.37-2.99c-0.28-0.99-0.4-2.02-0.58-3.03c-0.1-0.57-0.22-1.15-0.25-1.73
			c-0.04-0.82-0.06-1.62,0.13-2.45c0.2-0.86,0.22-1.75,0.52-2.61c0.37-1.04,0.84-2.03,1.54-2.88c1.55-1.88,3.51-3.14,5.83-3.86
			c0.51-0.16,1.02-0.34,1.54-0.47c0.9-0.23,1.81-0.56,2.73-0.61c2.14-0.13,4.28-0.14,6.43-0.16c0.87-0.01,1.75,0.05,2.6,0.19
			c1.18,0.19,2.34,0.48,3.5,0.75c0.66,0.15,1.33,0.3,1.97,0.52c1.28,0.46,2.54,0.95,3.72,1.63c1,0.57,1.9,1.24,2.58,2.22
			c0.69,1.01,1.65,1.67,2.95,1.64c0.45-0.01,0.9-0.01,1.34-0.05c0.23-0.02,0.47-0.08,0.67-0.19c1.08-0.54,1.91-1.28,2.26-2.52
			c0.24-0.87,0.32-1.68-0.02-2.53c-0.19-0.47-0.36-0.96-0.53-1.45c-0.33-0.95-0.64-1.9-0.98-2.85c-0.34-0.95-0.66-1.9-0.82-2.89
			c-0.02-0.09-0.03-0.18-0.05-0.28c-0.22-1-0.55-2-0.62-3.01c-0.14-1.9-0.14-3.81-0.17-5.72c-0.02-1.37,0.25-2.72,0.65-4.01
			c0.43-1.43,1.04-2.8,1.93-4.03c1.07-1.49,2.39-2.67,4-3.53c0.77-0.41,1.56-0.74,2.4-0.98c1.15-0.33,2.31-0.73,3.51-0.59
			c0.96,0.11,1.94,0.28,2.87,0.65c1.33,0.54,2.58,1.22,3.71,2.1c1.84,1.43,3.38,3.12,4.74,5c0.63,0.87,1.26,1.75,1.82,2.67
			c0.66,1.08,1.31,2.18,1.86,3.31c0.66,1.35,1.26,2.73,1.8,4.13c0.42,1.09,0.72,2.23,1.05,3.35c0.4,1.33,0.7,2.68,0.82,4.07
			c0.06,0.68,0.15,1.36,0.28,2.03c0.33,1.77,2.59,2.18,3.73,1.44c0.5-0.33,0.8-0.84,1.17-1.29c1.13-1.4,2.21-2.84,3.61-4
			c0.88-0.73,1.69-1.56,2.59-2.26c1.49-1.15,3.11-2.08,4.93-2.65c1.1-0.35,2.21-0.6,3.36-0.66c0.65-0.04,1.25,0.18,1.88,0.25
			c1.49,0.18,2.78,0.84,4.03,1.58c1.99,1.19,3.51,2.91,4.79,4.8c1.64,2.43,2.86,5.07,3.6,7.91c0.16,0.61,0.33,1.22,0.46,1.84
			c0.24,1.12,0.53,2.25,0.64,3.38c0.15,1.4,0.17,2.82,0.19,4.23c0.04,2.9-0.17,5.77-0.86,8.61c-0.36,1.49-0.76,2.96-1.29,4.39
			c-0.05,0.14-0.06,0.3-0.09,0.45c0.61-1.09,1.1-2.21,1.55-3.35c0.22-0.54,0.36-1.11,0.53-1.67c0.25-0.83,0.5-1.65,0.73-2.48
			c0.06-0.22,0.02-0.49,0.11-0.69c0.43-1.01,0.42-2.11,0.6-3.16c0.22-1.31,0.21-2.67,0.21-4.02c0-1.79-0.08-3.58-0.16-5.37
			c-0.03-0.6-0.18-1.2-0.29-1.79c-0.19-1.03-0.4-2.07-0.6-3.1c0-0.02-0.02-0.04-0.02-0.07c-0.36-1.03-0.7-2.08-1.09-3.1
			c-0.31-0.81-0.59-1.64-1.03-2.37c-0.88-1.48-1.7-3.01-2.87-4.31c-1.05-1.16-2.07-2.36-3.41-3.2c-0.87-0.55-1.76-1.08-2.69-1.51
			c-1.28-0.58-2.62-1.01-4.06-1.04c-0.37-0.01-0.75-0.1-1.12-0.12c-0.32-0.02-0.64-0.02-0.96,0c-0.21,0.01-0.42,0.1-0.63,0.1
			c-1.45,0.01-2.82,0.38-4.19,0.83c-1.49,0.48-2.86,1.19-4.18,1.98c-1.44,0.87-2.81,1.88-4.03,3.05c-0.19,0.18-0.43,0.32-0.66,0.5
			c-0.1-0.16-0.17-0.23-0.19-0.32c-0.18-0.75-0.35-1.5-0.52-2.25c-0.07-0.32-0.1-0.65-0.21-0.96c-0.35-1.04-0.69-2.08-1.08-3.1
			c-0.46-1.2-0.89-2.42-1.46-3.57c-0.74-1.51-1.55-2.99-2.42-4.42c-0.84-1.37-1.73-2.72-2.74-3.97c-0.96-1.2-2.07-2.29-3.15-3.39
			c-0.97-0.99-2.01-1.91-3.21-2.59c-1.2-0.68-2.45-1.29-3.73-1.79c-1.06-0.41-2.2-0.69-3.32-0.86c-2.21-0.34-4.41-0.07-6.58,0.42
			c-0.52,0.12-1.04,0.27-1.54,0.47c-0.87,0.34-1.73,0.7-2.58,1.09c-1.06,0.49-2.09,1.04-3.03,1.76c-1.41,1.08-2.6,2.37-3.66,3.79
			c-1.51,2.02-2.58,4.25-3.25,6.67c-0.18,0.66-0.38,1.31-0.49,1.98c-0.24,1.44-0.53,2.87-0.6,4.32c-0.11,2.09-0.1,4.18,0.23,6.27
			c0.19,1.18,0.02,1.13-1.18,0.87c-0.02,0-0.04-0.02-0.07-0.02c-0.85-0.24-1.7-0.52-2.56-0.72c-0.91-0.21-1.86-0.28-2.76-0.53
			c-1.08-0.3-2.18-0.35-3.28-0.39c-0.26-0.01-0.52-0.05-0.77-0.08c-0.42-0.05-0.83-0.17-1.25-0.17c-1.62,0.03-3.24-0.16-4.85,0.21
			c-0.75,0.17-1.55,0.11-2.32,0.2c-0.44,0.05-0.87,0.19-1.3,0.28c-0.94,0.2-1.91,0.31-2.81,0.61c-1.36,0.44-2.69,0.95-4,1.52
			c-1.61,0.71-3.11,1.63-4.46,2.77c-2.15,1.81-3.84,3.97-4.99,6.55c-0.68,1.51-1.19,3.08-1.42,4.7c-0.24,1.69-0.48,3.4-0.31,5.13
			c0.18,1.83,0.33,3.65,0.71,5.45c0.14,0.67,0.3,1.33,0.48,1.99c0.11,0.41,0.24,0.81,0.4,1.2c0.6,1.46,1.31,2.87,2.18,4.17
			c1.17,1.76,2.39,3.49,3.67,5.16c1.98,2.57,4.18,4.96,5.81,7.79c0.9,1.56,1.59,3.19,1.52,5.05c-0.03,0.78,0.05,1.54,0.34,2.28
			c0.69,1.76,2.27,2.68,3.95,2.83c0.51,0.05,0.97-0.12,1.44-0.26c0.79-0.23,1.46-0.64,1.99-1.26c0.32-0.37,0.58-0.79,0.9-1.16
			c1.16-1.37,2.28-2.79,3.52-4.09c1.7-1.8,3.46-3.55,5.26-5.26c1.45-1.39,3-2.68,4.63-3.86c1.42-1.02,2.77-2.16,4.24-3.11
			c2.02-1.3,4.06-2.58,6.21-3.68c1.61-0.82,3.26-1.54,4.95-2.17c1.27-0.47,2.57-0.88,3.84-1.35c1.52-0.56,3.09-0.93,4.68-1.23
			c0.14-0.03,0.28-0.03,0.42-0.06c1.1-0.21,2.2-0.48,3.31-0.63c0.93-0.13,1.88-0.12,2.82-0.18c0.68-0.04,1.36-0.12,2.04-0.15
			c0.75-0.03,1.5-0.03,2.25,0c0.47,0.01,0.94,0.14,1.41,0.14c1.68,0,3.32,0.25,4.97,0.52c0.3,0.05,0.61,0.06,0.91,0.13
			c1,0.24,2,0.5,2.99,0.77c0.63,0.17,1.27,0.34,1.89,0.55c0.93,0.33,1.85,0.68,2.75,1.05c1.23,0.51,2.47,1,3.66,1.6
			c1.87,0.94,3.58,2.14,5.21,3.44c1.93,1.54,3.69,3.28,5.22,5.22c1.33,1.68,2.45,3.51,3.33,5.46c0.37,0.81,0.68,1.65,0.92,2.51
			c0.26,0.95,0.38,1.94,0.62,2.89c0.4,1.63,0.34,3.3,0.16,4.92c-0.18,1.55-0.52,3.09-1.07,4.59c-0.68,1.87-1.59,3.6-2.59,5.3
			c-0.54,0.92-1.37,1.37-2.32,1.55c-1.36,0.26-2.73,0.45-4.05,0.87c-1.07,0.34-2.17,0.62-3.19,1.06c-1.33,0.58-2.63,1.23-3.88,1.97
			c-1.53,0.9-3.05,1.84-4.48,2.9c-2.81,2.09-5.38,4.47-7.86,6.94c-2.22,2.2-4.35,4.49-6.48,6.77c-1.7,1.82-3.41,3.64-5.43,5.11
			c-1.11,0.81-2.27,1.57-3.45,2.28c-1.1,0.66-2.28,1.19-3.51,1.58c-0.69,0.22-1.4,0.47-2.11,0.52c-1.43,0.11-2.87,0.12-4.3,0.13
			c-0.54,0-1.08-0.08-1.61-0.21c-0.65-0.16-1.29-0.41-1.93-0.63c-1.12-0.37-2.16-0.89-3.13-1.56
			C99.41,157.23,99.16,157.1,98.84,157.21z M128.06,161.31c-0.07,0-0.13-0.01-0.2-0.01c-0.17,1.32-0.46,2.65-0.49,3.97
			c-0.05,2.7-0.16,5.4,0.34,8.1c0.3,1.64,0.6,3.28,1.06,4.88c0.42,1.48,0.97,2.94,1.54,4.37c0.57,1.41,1.17,2.82,1.88,4.17
			c1.33,2.54,2.96,4.9,4.76,7.14c1.49,1.86,3.19,3.51,5.03,5.01c0.4,0.33,0.84,0.61,1.26,0.91c-0.47-1.25-1-2.43-1.56-3.58
			c-0.63-1.3-1.32-2.58-1.94-3.89c-0.65-1.37-1.26-2.76-1.89-4.15c-0.45-1-0.89-2-1.33-3.01c-0.2-0.45-0.37-0.91-0.56-1.36
			c-0.35-0.84-0.73-1.67-1.07-2.51c-0.35-0.87-0.67-1.75-1.01-2.62c-0.5-1.26-1.02-2.5-1.49-3.77c-0.37-1.01-0.67-2.04-1.01-3.06
			c-0.35-1.04-0.75-2.06-1.08-3.1c-0.45-1.4-0.86-2.81-1.28-4.22C128.69,163.51,128.38,162.41,128.06,161.31z M147.26,112.81
			c0.2-1.21-1.08-3.51-2.35-4.33c-2.27-1.45-4.56-1.51-6.87-0.09c-1.29,0.8-2.65,3.14-2.49,4.39c0.98-0.32,1.94-0.68,2.92-0.95
			c0.87-0.24,1.77-0.43,2.66-0.58c1.03-0.17,1.99,0.25,2.96,0.49C145.14,112.01,146.16,112.44,147.26,112.81z M165.18,96.82
			c0.04,0.01,0.08,0.02,0.12,0.03c0.03-0.12,0.06-0.25,0.09-0.37c-0.03-0.01-0.06-0.01-0.1-0.02
			C165.26,96.58,165.22,96.7,165.18,96.82z"/>
		<path class="st0" d="M98.83,157.22c0.32-0.12,0.58,0.01,0.85,0.19c0.97,0.66,2.01,1.19,3.13,1.56c0.64,0.21,1.27,0.46,1.93,0.63
			c0.52,0.13,1.07,0.21,1.61,0.21c1.43-0.01,2.87-0.02,4.3-0.13c0.71-0.06,1.42-0.3,2.11-0.52c1.23-0.4,2.41-0.92,3.51-1.58
			c1.18-0.71,2.34-1.47,3.45-2.28c2.02-1.47,3.73-3.29,5.43-5.11c2.13-2.28,4.27-4.57,6.48-6.77c2.48-2.47,5.05-4.85,7.86-6.94
			c1.42-1.06,2.95-2,4.48-2.9c1.25-0.73,2.55-1.39,3.88-1.97c1.02-0.45,2.12-0.72,3.19-1.06c1.32-0.42,2.69-0.61,4.05-0.87
			c0.95-0.18,1.78-0.63,2.32-1.55c1.01-1.7,1.91-3.43,2.59-5.3c0.54-1.5,0.89-3.04,1.07-4.59c0.18-1.62,0.25-3.29-0.16-4.92
			c-0.24-0.96-0.36-1.94-0.62-2.89c-0.24-0.86-0.55-1.7-0.92-2.51c-0.88-1.96-2-3.78-3.33-5.46c-1.54-1.94-3.29-3.68-5.22-5.22
			c-1.63-1.3-3.34-2.5-5.21-3.44c-1.19-0.6-2.43-1.09-3.66-1.6c-0.91-0.38-1.83-0.73-2.75-1.05c-0.62-0.22-1.25-0.38-1.89-0.55
			c-0.99-0.27-1.99-0.52-2.99-0.77c-0.3-0.07-0.61-0.08-0.91-0.13c-1.65-0.27-3.29-0.52-4.97-0.52c-0.47,0-0.94-0.12-1.41-0.14
			c-0.75-0.02-1.5-0.02-2.25,0c-0.68,0.02-1.36,0.11-2.04,0.15c-0.94,0.06-1.89,0.05-2.82,0.18c-1.11,0.15-2.21,0.42-3.31,0.63
			c-0.14,0.03-0.28,0.04-0.42,0.06c-1.59,0.3-3.15,0.67-4.68,1.23c-1.27,0.47-2.57,0.88-3.84,1.35c-1.69,0.63-3.34,1.34-4.95,2.17
			c-2.15,1.1-4.19,2.38-6.21,3.68c-1.47,0.95-2.82,2.08-4.24,3.11c-1.63,1.18-3.18,2.47-4.63,3.86c-1.79,1.71-3.55,3.46-5.26,5.26
			c-1.23,1.31-2.36,2.72-3.52,4.09c-0.32,0.37-0.58,0.79-0.9,1.16c-0.53,0.62-1.19,1.03-1.99,1.26c-0.48,0.14-0.94,0.3-1.44,0.26
			c-1.68-0.15-3.26-1.07-3.95-2.83c-0.29-0.75-0.37-1.5-0.34-2.28c0.06-1.86-0.62-3.49-1.52-5.05c-1.63-2.82-3.83-5.22-5.81-7.79
			c-1.29-1.67-2.5-3.4-3.67-5.16c-0.87-1.31-1.58-2.71-2.18-4.17c-0.16-0.39-0.29-0.8-0.4-1.2c-0.18-0.66-0.34-1.32-0.48-1.99
			c-0.38-1.8-0.52-3.63-0.71-5.45c-0.17-1.73,0.07-3.44,0.31-5.13c0.23-1.62,0.74-3.18,1.42-4.7c1.15-2.59,2.84-4.74,4.99-6.55
			c1.35-1.14,2.84-2.06,4.46-2.77c1.31-0.57,2.64-1.09,4-1.52c0.91-0.29,1.87-0.41,2.81-0.61c0.43-0.09,0.86-0.23,1.3-0.28
			c0.77-0.09,1.57-0.03,2.32-0.2c1.61-0.37,3.24-0.18,4.85-0.21c0.42-0.01,0.83,0.11,1.25,0.17c0.26,0.03,0.51,0.07,0.77,0.08
			c1.1,0.04,2.2,0.09,3.28,0.39c0.9,0.25,1.85,0.32,2.76,0.53c0.86,0.2,1.71,0.48,2.56,0.72c0.02,0.01,0.04,0.02,0.07,0.02
			c1.19,0.26,1.37,0.31,1.18-0.87c-0.33-2.09-0.34-4.18-0.23-6.27c0.07-1.45,0.37-2.89,0.6-4.32c0.11-0.67,0.31-1.33,0.49-1.98
			c0.67-2.42,1.73-4.65,3.25-6.67c1.06-1.42,2.25-2.7,3.66-3.79c0.94-0.72,1.96-1.27,3.03-1.76c0.85-0.39,1.71-0.75,2.58-1.09
			c0.5-0.19,1.02-0.35,1.54-0.47c2.17-0.48,4.37-0.76,6.58-0.42c1.13,0.18,2.26,0.46,3.32,0.86c1.28,0.49,2.53,1.11,3.73,1.79
			c1.2,0.68,2.25,1.6,3.21,2.59c1.08,1.1,2.19,2.19,3.15,3.39c1,1.25,1.9,2.6,2.74,3.97c0.88,1.43,1.68,2.92,2.42,4.42
			c0.57,1.15,1,2.37,1.46,3.57c0.39,1.02,0.74,2.06,1.08,3.1c0.1,0.31,0.14,0.64,0.21,0.96c0.17,0.75,0.34,1.5,0.52,2.25
			c0.02,0.09,0.09,0.16,0.19,0.32c0.24-0.17,0.47-0.31,0.66-0.5c1.23-1.17,2.59-2.18,4.03-3.05c1.32-0.79,2.69-1.5,4.18-1.98
			c1.37-0.45,2.74-0.82,4.19-0.83c0.21,0,0.42-0.09,0.63-0.1c0.32-0.02,0.64-0.02,0.96,0c0.37,0.02,0.75,0.12,1.12,0.12
			c1.44,0.02,2.78,0.45,4.06,1.04c0.93,0.43,1.82,0.96,2.69,1.51c1.34,0.84,2.36,2.04,3.41,3.2c1.17,1.3,1.98,2.83,2.87,4.31
			c0.44,0.73,0.72,1.57,1.03,2.37c0.39,1.02,0.73,2.07,1.09,3.1c0.01,0.02,0.02,0.04,0.02,0.07c0.2,1.03,0.4,2.07,0.6,3.1
			c0.11,0.6,0.26,1.19,0.29,1.79c0.09,1.79,0.16,3.58,0.16,5.37c0,1.34,0.01,2.7-0.21,4.02c-0.18,1.05-0.17,2.15-0.6,3.16
			c-0.09,0.21-0.05,0.47-0.11,0.69c-0.23,0.83-0.48,1.66-0.73,2.48c-0.17,0.56-0.31,1.13-0.53,1.67c-0.45,1.14-0.95,2.26-1.55,3.35
			c0.03-0.15,0.03-0.31,0.09-0.45c0.53-1.43,0.93-2.9,1.29-4.39c0.69-2.84,0.9-5.71,0.86-8.61c-0.02-1.41-0.05-2.83-0.19-4.23
			c-0.12-1.14-0.41-2.26-0.64-3.38c-0.13-0.62-0.3-1.23-0.46-1.84c-0.74-2.85-1.96-5.49-3.6-7.91c-1.28-1.89-2.8-3.61-4.79-4.8
			c-1.25-0.74-2.53-1.4-4.03-1.58c-0.62-0.08-1.23-0.29-1.88-0.25c-1.15,0.06-2.26,0.31-3.36,0.66c-1.82,0.57-3.43,1.5-4.93,2.65
			c-0.91,0.7-1.71,1.52-2.59,2.26c-1.39,1.16-2.48,2.61-3.61,4c-0.37,0.45-0.67,0.97-1.17,1.29c-1.14,0.73-3.39,0.32-3.73-1.44
			c-0.13-0.67-0.22-1.35-0.28-2.03c-0.12-1.39-0.42-2.74-0.82-4.07c-0.34-1.12-0.63-2.26-1.05-3.35c-0.54-1.4-1.14-2.78-1.8-4.13
			c-0.56-1.14-1.2-2.23-1.86-3.31c-0.56-0.92-1.19-1.8-1.82-2.67c-1.35-1.88-2.9-3.57-4.74-5c-1.14-0.88-2.38-1.56-3.71-2.1
			c-0.93-0.38-1.9-0.55-2.87-0.65c-1.2-0.14-2.36,0.27-3.51,0.59c-0.84,0.24-1.63,0.57-2.4,0.98c-1.61,0.86-2.93,2.04-4,3.53
			c-0.89,1.24-1.49,2.61-1.93,4.03c-0.39,1.29-0.67,2.64-0.65,4.01c0.03,1.91,0.03,3.82,0.17,5.72c0.07,1.01,0.41,2.01,0.62,3.01
			c0.02,0.09,0.04,0.18,0.05,0.28c0.17,1,0.49,1.94,0.82,2.89c0.34,0.95,0.65,1.9,0.98,2.85c0.17,0.48,0.33,0.97,0.53,1.45
			c0.35,0.84,0.26,1.66,0.02,2.53c-0.35,1.25-1.18,1.98-2.26,2.52c-0.21,0.1-0.44,0.17-0.67,0.19c-0.44,0.04-0.89,0.04-1.34,0.05
			c-1.3,0.03-2.27-0.63-2.95-1.64c-0.68-0.99-1.58-1.65-2.58-2.22c-1.18-0.67-2.44-1.17-3.72-1.63c-0.64-0.23-1.31-0.37-1.97-0.52
			c-1.16-0.27-2.33-0.55-3.5-0.75c-0.86-0.14-1.74-0.2-2.6-0.19c-2.14,0.01-4.29,0.03-6.43,0.16c-0.92,0.06-1.82,0.39-2.73,0.61
			c-0.52,0.13-1.03,0.31-1.54,0.47c-2.32,0.72-4.28,1.98-5.83,3.86c-0.7,0.85-1.17,1.84-1.54,2.88c-0.3,0.85-0.32,1.75-0.52,2.61
			c-0.2,0.83-0.17,1.63-0.13,2.45c0.03,0.58,0.15,1.16,0.25,1.73c0.18,1.01,0.3,2.05,0.58,3.03c0.3,1.06,0.79,2.05,1.37,2.99
			c0.84,1.38,1.74,2.71,2.76,3.96c1,1.23,2.02,2.45,3.01,3.7c1.12,1.41,2.24,2.81,3.14,4.38c0.45,0.78,0.95,1.54,1.49,2.39
			c0.37-0.35,0.71-0.65,1.04-0.98c2.22-2.23,4.55-4.34,7-6.31c1.1-0.88,2.19-1.77,3.34-2.58c1.46-1.02,2.94-2,4.46-2.93
			c1.54-0.94,3.1-1.85,4.69-2.69c1.36-0.72,2.77-1.37,4.18-2c1.17-0.53,2.36-1.03,3.56-1.49c0.98-0.37,2-0.67,3-0.98
			c0.8-0.25,1.61-0.5,2.42-0.71c0.84-0.22,1.68-0.41,2.53-0.59c1.21-0.25,2.43-0.48,3.65-0.71c0.28-0.05,0.56-0.04,0.84-0.08
			c2.66-0.36,5.34-0.47,8.02-0.42c0.61,0.01,1.23,0.02,1.84,0.03c0.61,0.01,1.21,0.07,1.81,0.2c0.8,0.17,1.64,0.11,2.46,0.24
			c1.13,0.17,2.25,0.42,3.37,0.64c0.16,0.03,0.33,0.04,0.49,0.08c0.97,0.25,1.95,0.5,2.92,0.76c0.52,0.14,1.03,0.32,1.54,0.47
			c2.49,0.71,4.84,1.75,7.13,2.93c2.74,1.4,5.31,3.05,7.66,5.05c0.91,0.78,1.88,1.5,2.72,2.34c1.39,1.39,2.79,2.8,3.87,4.44
			c1.21,1.83,2.43,3.66,3.25,5.72c0.42,1.06,0.86,2.12,1.22,3.2c0.31,0.93,0.57,1.87,0.79,2.83c0.56,2.4,0.57,4.85,0.46,7.29
			c-0.03,0.76,0,1.55-0.33,2.29c-0.11,0.25-0.04,0.57-0.11,0.84c-0.23,0.88-0.48,1.75-0.75,2.62c-0.3,0.93-0.6,1.87-0.99,2.77
			c-0.4,0.92-0.85,1.82-1.36,2.68c-0.69,1.17-1.42,2.31-2.19,3.42c-0.63,0.9-1.5,1.54-2.5,2.01c-1.13,0.53-2.34,0.73-3.58,0.94
			c-1.2,0.2-2.4,0.35-3.6,0.59c-2.44,0.49-4.6,1.56-6.75,2.71c-1.45,0.78-2.82,1.67-4.17,2.59c-1.67,1.13-3.23,2.39-4.78,3.68
			c-2.03,1.69-4.05,3.4-5.99,5.2c-1.47,1.37-2.94,2.75-4.44,4.09c-1.92,1.72-3.97,3.28-6.23,4.52c-1.37,0.75-2.77,1.45-4.29,1.91
			c-1.28,0.38-2.54,0.8-3.89,0.86c-0.53,0.02-1.07,0.23-1.6,0.21c-1.48-0.03-2.93-0.27-4.37-0.63c-1.83-0.46-3.45-1.32-5.01-2.32
			C99.73,157.89,99.29,157.54,98.83,157.22L98.83,157.22z"/>
		<path class="st0" d="M170.6,118.51c0.18,0.05,0.39,0.06,0.52,0.17c0.99,0.78,1.96,1.58,2.95,2.37c0.44,0.35,0.89,0.68,1.33,1.03
			c1.32,1.04,2.64,2.09,3.96,3.14c0.46,0.37,0.89,0.76,1.34,1.14c1.03,0.88,2.07,1.75,3.1,2.63c1.61,1.39,3.23,2.76,4.83,4.17
			c1.11,0.98,1.09,2.81-0.2,3.81c-0.34,0.26-0.72,0.39-1.16,0.46c-0.97,0.16-1.92,0.4-2.88,0.61c-0.16,0.03-0.32,0.07-0.48,0.09
			c-1.18,0.2-2.36,0.38-3.54,0.59c-1.52,0.27-3.04,0.54-4.56,0.83c-1.03,0.2-2.06,0.44-3.09,0.65c-0.23,0.05-0.47,0.05-0.7,0.09
			c-1.18,0.18-2.36,0.35-3.54,0.54c-0.76,0.12-1.55,0.19-2.27,0.43c-1.03,0.35-2.09,0.69-2.91,1.5c-0.34,0.34-0.49,0.72-0.52,1.18
			c-0.09,1.44,0.23,2.77,0.79,4.1c0.74,1.77,1.72,3.41,2.6,5.11c1.04,2.02,2.1,4.02,3.13,6.04c0.59,1.17,1.14,2.36,1.7,3.54
			c0.5,1.05,1.04,2.09,1.5,3.16c0.39,0.92,0.72,1.88,1.04,2.83c0.3,0.86,0.59,1.72,0.82,2.6c0.24,0.93,0.41,1.87,0.61,2.81
			c0.11,0.5,0.25,1,0.3,1.51c0.19,1.78,0.25,3.58-0.03,5.35c-0.18,1.1-0.56,2.15-1.02,3.18c-0.73,1.63-1.92,2.81-3.32,3.81
			c-0.64,0.46-1.37,0.82-2.09,1.12c-1.19,0.5-2.45,0.73-3.72,0.97c-1.27,0.24-2.53,0.29-3.78,0.18c-1.16-0.09-2.32-0.25-3.46-0.58
			c-0.93-0.27-1.85-0.54-2.7-0.98c-1.13-0.57-2.25-1.16-3.31-1.84c-2.09-1.35-3.79-3.14-5.36-5.04c-1.64-1.97-3.07-4.1-4.15-6.43
			c-0.69-1.49-1.37-2.99-1.93-4.53c-0.44-1.18-0.72-2.43-1.01-3.66c-0.26-1.12-0.45-2.26-0.66-3.39c-0.03-0.14-0.04-0.28-0.04-0.42
			c0-1.27,0-2.54,0-3.85c0.21,0.94,0.39,1.85,0.62,2.75c0.17,0.65,0.4,1.29,0.64,1.92c0.31,0.85,0.61,1.72,0.99,2.54
			c0.57,1.23,1.18,2.44,1.83,3.63c0.47,0.86,1,1.68,1.56,2.49c0.72,1.04,1.46,2.06,2.24,3.05c0.52,0.66,1.08,1.29,1.66,1.9
			c1.26,1.32,2.58,2.59,4.09,3.61c1.45,0.99,2.99,1.82,4.67,2.42c1.84,0.65,3.71,0.9,5.61,0.66c1.59-0.2,3.19-0.54,4.53-1.56
			c0.75-0.57,1.25-1.29,1.52-2.23c0.35-1.22,0.36-2.4,0.06-3.62c-0.24-0.98-0.37-1.99-0.63-2.96c-0.26-0.97-0.61-1.92-0.97-2.86
			c-0.33-0.88-0.69-1.75-1.08-2.6c-0.78-1.68-1.59-3.34-2.4-5.01c-0.67-1.39-1.34-2.79-2.03-4.18c-0.46-0.93-0.95-1.83-1.41-2.76
			c-0.9-1.83-1.85-3.65-2.67-5.51c-0.66-1.5-1.19-3.08-1.35-4.72c-0.11-1.14-0.17-2.32-0.01-3.45c0.34-2.32,1.46-4.24,3.4-5.62
			c1.19-0.85,2.47-1.48,3.91-1.86c0.76-0.2,1.51-0.27,2.26-0.42c1.39-0.27,2.82-0.21,4.2-0.43c1.52-0.25,3.05-0.2,4.55-0.43
			c1.54-0.24,3.1-0.22,4.63-0.42c1.17-0.15,2.34-0.2,3.5-0.36c0.45-0.06,0.52-0.24,0.22-0.59c-1.08-1.24-2.18-2.46-3.27-3.7
			c-1.76-2.02-3.53-4.03-5.26-6.06c-1.14-1.34-2.25-2.71-3.35-4.07c-0.14-0.17-0.21-0.41-0.31-0.61L170.6,118.51z"/>
		<path class="st0" d="M201.96,192.59c0.73,1.34,1.27,2.73,2.09,3.94c0.15-0.03,0.21-0.03,0.24-0.05c0.61-0.65,1.22-1.29,1.82-1.95
			c0.26-0.29,0.2-0.44-0.2-0.62c-0.87-0.39-1.73-0.81-2.62-1.15C202.9,192.62,202.49,192.37,201.96,192.59z"/>
		<path class="st0" d="M128.06,161.31c0.32,1.1,0.63,2.19,0.95,3.29c0.42,1.41,0.83,2.82,1.28,4.22c0.33,1.04,0.73,2.07,1.08,3.1
			c0.35,1.02,0.64,2.05,1.01,3.06c0.47,1.27,1,2.51,1.49,3.77c0.34,0.87,0.66,1.75,1.01,2.62c0.34,0.84,0.72,1.67,1.07,2.51
			c0.19,0.45,0.36,0.91,0.56,1.36c0.44,1,0.88,2.01,1.33,3.01c0.62,1.39,1.23,2.78,1.89,4.15c0.62,1.31,1.31,2.58,1.94,3.89
			c0.56,1.15,1.08,2.33,1.56,3.58c-0.42-0.3-0.86-0.58-1.26-0.91c-1.84-1.5-3.54-3.16-5.03-5.01c-1.8-2.24-3.43-4.6-4.76-7.14
			c-0.71-1.35-1.31-2.76-1.88-4.17c-0.57-1.43-1.12-2.89-1.54-4.37c-0.46-1.6-0.75-3.24-1.06-4.88c-0.5-2.7-0.39-5.4-0.34-8.1
			c0.03-1.33,0.32-2.65,0.49-3.97C127.93,161.3,128,161.31,128.06,161.31z"/>
		<path class="st0" d="M147.26,112.81c-1.1-0.38-2.11-0.8-3.17-1.07c-0.97-0.24-1.93-0.66-2.96-0.49c-0.9,0.15-1.79,0.34-2.66,0.58
			c-0.98,0.27-1.94,0.63-2.92,0.95c-0.16-1.25,1.2-3.59,2.49-4.39c2.31-1.43,4.6-1.37,6.87,0.09
			C146.18,109.3,147.46,111.6,147.26,112.81z"/>
		<path class="st0" d="M165.18,96.82c0.04-0.12,0.08-0.24,0.12-0.36c0.03,0.01,0.06,0.01,0.1,0.02c-0.03,0.12-0.06,0.25-0.09,0.37
			C165.26,96.85,165.22,96.83,165.18,96.82z"/>
		<path class="st0" d="M170.62,118.49c-0.12-0.07-0.25-0.13-0.37-0.2c0.28-0.13,0.33,0.03,0.35,0.22
			C170.6,118.51,170.62,118.49,170.62,118.49z"/>
		<path class="st0" d="M98.84,157.21c-0.07-0.12-0.14-0.25-0.22-0.39C98.95,156.81,98.84,157.04,98.84,157.21
			C98.83,157.22,98.84,157.21,98.84,157.21z"/>
		<path class="st0" d="M201.96,192.59c0.53-0.22,0.94,0.03,1.32,0.17c0.89,0.34,1.75,0.75,2.62,1.15c0.4,0.18,0.46,0.33,0.2,0.62
			c-0.59,0.66-1.21,1.3-1.82,1.95c-0.03,0.03-0.09,0.02-0.24,0.05C203.22,195.33,202.69,193.93,201.96,192.59z"/>
	</g>
</g>
</svg>
